<?xml version="1.0" encoding="utf-8"?>
<!-- Generator: Adobe Illustrator 28.1.0, SVG Export Plug-In . SVG Version: 6.00 Build 0)  -->
<svg version="1.1" id="Layer_1" xmlns="http://www.w3.org/2000/svg" xmlns:xlink="http://www.w3.org/1999/xlink" x="0px" y="0px"
	 viewBox="0 0 24 24" style="enable-background:new 0 0 24 24;" xml:space="preserve">
<style type="text/css">
	.st0{fill:#ED1C24;}
</style>
<g>
	<g>
		<path class="st0" d="M17.9,14.4c-0.4-0.4-0.9-0.7-1.4-0.7c-0.5,0-1,0.2-1.5,0.7l-1.4,1.3c-0.1-0.1-0.2-0.1-0.3-0.2
			c-0.2-0.1-0.3-0.1-0.4-0.2c-1.3-0.8-2.4-1.9-3.5-3.2c-0.5-0.7-0.9-1.2-1.2-1.8c0.4-0.3,0.7-0.7,1-1C9.3,9.2,9.4,9.1,9.5,9
			c0.9-0.9,0.9-2.1,0-3L8.4,4.9C8.2,4.7,8.1,4.6,8,4.5C7.7,4.2,7.5,3.9,7.2,3.7C6.8,3.2,6.3,3,5.7,3s-1,0.2-1.5,0.6c0,0,0,0,0,0
			L2.8,5.1C2.3,5.7,2,6.4,1.9,7.1c-0.1,1.3,0.3,2.4,0.5,3.2c0.7,1.9,1.7,3.6,3.3,5.5c1.9,2.2,4.1,4,6.7,5.3c1,0.5,2.3,1,3.8,1.1
			c0.1,0,0.2,0,0.3,0c1,0,1.8-0.4,2.5-1.1c0,0,0,0,0,0c0.2-0.3,0.5-0.5,0.7-0.8c0.2-0.2,0.4-0.4,0.6-0.6c0.4-0.4,0.6-1,0.6-1.5
			c0-0.5-0.2-1-0.7-1.5L17.9,14.4z M19.4,18.9C19.4,18.9,19.4,18.9,19.4,18.9c-0.2,0.2-0.3,0.3-0.5,0.5c-0.3,0.3-0.6,0.5-0.8,0.9
			c-0.4,0.5-0.9,0.7-1.6,0.7c-0.1,0-0.1,0-0.2,0c-1.3-0.1-2.5-0.6-3.3-1c-2.4-1.2-4.6-2.8-6.3-4.9c-1.5-1.8-2.4-3.4-3.1-5.1
			C3.1,8.8,3,8,3,7.2c0-0.5,0.2-0.9,0.6-1.3l1.5-1.5c0.2-0.2,0.4-0.3,0.7-0.3c0.3,0,0.5,0.2,0.6,0.3c0,0,0,0,0,0
			C6.6,4.7,6.9,5,7.2,5.3c0.1,0.1,0.3,0.3,0.4,0.4l1.2,1.2c0.5,0.5,0.5,0.9,0,1.3C8.6,8.3,8.5,8.4,8.4,8.5C8,8.9,7.7,9.3,7.3,9.6
			c0,0,0,0,0,0C6.9,10,7,10.3,7,10.6c0,0,0,0,0,0c0.3,0.7,0.7,1.4,1.4,2.3l0,0c1.2,1.5,2.4,2.6,3.8,3.5c0.2,0.1,0.4,0.2,0.5,0.3
			c0.2,0.1,0.3,0.1,0.4,0.2c0,0,0,0,0.1,0c0.1,0.1,0.3,0.1,0.4,0.1c0.4,0,0.6-0.2,0.7-0.3l1.5-1.5c0.1-0.1,0.4-0.3,0.6-0.3
			c0.3,0,0.5,0.2,0.6,0.3c0,0,0,0,0,0l2.4,2.4C19.9,18,19.9,18.5,19.4,18.9z"/>
		<path class="st0" d="M12.8,6.7c1.1,0.2,2.1,0.7,3,1.5c0.8,0.8,1.3,1.8,1.5,3c0,0.3,0.3,0.5,0.6,0.5c0,0,0.1,0,0.1,0
			c0.3-0.1,0.5-0.4,0.5-0.7c-0.2-1.4-0.9-2.6-1.9-3.6S14.4,5.8,13,5.5c-0.3-0.1-0.6,0.2-0.7,0.5C12.3,6.3,12.5,6.6,12.8,6.7z"/>
		<path class="st0" d="M22.1,10.8c-0.4-2.2-1.4-4.3-3.1-5.9s-3.7-2.7-5.9-3.1c-0.3-0.1-0.6,0.2-0.7,0.5C12.5,2.7,12.7,2.9,13,3
			c2,0.3,3.8,1.3,5.3,2.7C19.7,7.2,20.6,9,21,11c0,0.3,0.3,0.5,0.6,0.5c0,0,0.1,0,0.1,0C22,11.4,22.2,11.1,22.1,10.8z"/>
	</g>
</g>
</svg>
