<?xml version="1.0" encoding="utf-8"?>
<!-- Generator: Adobe Illustrator 28.1.0, SVG Export Plug-In . SVG Version: 6.00 Build 0)  -->
<svg version="1.1" id="Layer_1" xmlns="http://www.w3.org/2000/svg" xmlns:xlink="http://www.w3.org/1999/xlink" x="0px" y="0px"
	 viewBox="0 0 95.87 24" style="enable-background:new 0 0 95.87 24;" xml:space="preserve">
<style type="text/css">
	.st0{fill:#231F20;}
	.st1{fill:#EC1C24;}
</style>
<path class="st0" d="M19.64,12.86c0.29-0.79,0.74-1.39,1.35-1.81c0.61-0.41,1.32-0.62,2.13-0.62h1.62c0.2,0,0.39-0.07,0.57-0.21
	c0.19-0.14,0.31-0.31,0.38-0.5c0.07-0.2,0.07-0.37-0.02-0.51C25.59,9.07,25.45,9,25.27,9h-4.22l0.62-1.71h4.01
	c0.46,0,0.83,0.07,1.11,0.2c0.28,0.13,0.49,0.31,0.62,0.53c0.13,0.22,0.19,0.48,0.18,0.77c-0.01,0.29-0.07,0.6-0.19,0.93
	c-0.11,0.3-0.26,0.6-0.46,0.89c-0.2,0.29-0.44,0.55-0.74,0.78c-0.29,0.23-0.63,0.41-1.01,0.56c-0.38,0.14-0.81,0.21-1.28,0.21h-1.65
	c-0.19,0-0.37,0.07-0.55,0.22c-0.18,0.15-0.3,0.32-0.37,0.51l-0.9,2.46h-1.71L19.64,12.86z"/>
<path class="st0" d="M27.25,12.86c0.29-0.79,0.74-1.39,1.35-1.81c0.61-0.41,1.32-0.62,2.13-0.62h1.62c0.2,0,0.39-0.07,0.57-0.21
	c0.19-0.14,0.31-0.31,0.38-0.5c0.07-0.2,0.07-0.37-0.02-0.51C33.2,9.07,33.07,9,32.88,9h-4.22l0.62-1.71h4.01
	c0.46,0,0.83,0.07,1.11,0.2c0.28,0.13,0.49,0.31,0.62,0.53c0.13,0.22,0.19,0.48,0.18,0.77c-0.01,0.29-0.07,0.6-0.19,0.93
	c-0.11,0.3-0.26,0.6-0.46,0.89c-0.2,0.29-0.44,0.55-0.74,0.78c-0.29,0.23-0.63,0.41-1.01,0.56c-0.38,0.14-0.81,0.21-1.28,0.21H30.7
	l3.06,1.52l-0.69,1.9l-4.26-2.28l-0.75,2.06h-1.71L27.25,12.86z"/>
<polygon class="st0" points="33.94,15.34 36.87,7.29 38.58,7.29 35.65,15.34 "/>
<path class="st0" d="M45.56,13.37c-0.11,0.31-0.27,0.59-0.47,0.85c-0.2,0.26-0.44,0.48-0.7,0.65c-0.26,0.18-0.54,0.32-0.84,0.42
	c-0.3,0.1-0.6,0.15-0.9,0.15c-0.44,0-0.79-0.14-1.04-0.42c-0.25-0.28-0.37-0.66-0.36-1.15l0.19-4.6c0.04-0.2-0.03-0.31-0.21-0.31
	c-0.24,0-0.41,0.16-0.53,0.49l-2.14,5.89h-1.8l2.2-6.03c0.11-0.31,0.27-0.59,0.47-0.85c0.2-0.26,0.44-0.48,0.7-0.65
	c0.26-0.18,0.54-0.32,0.84-0.42c0.3-0.1,0.6-0.15,0.91-0.15c0.44,0,0.79,0.14,1.04,0.42c0.25,0.28,0.37,0.66,0.36,1.15l-0.19,4.6
	c-0.04,0.2,0.04,0.31,0.24,0.31c0.21,0,0.38-0.16,0.5-0.49l2.16-5.94h1.8L45.56,13.37z"/>
<polygon class="st0" points="51.61,9 49.31,15.34 47.59,15.34 49.9,9 48,9 48.63,7.29 54.03,7.29 53.4,9 "/>
<path class="st0" d="M57.4,7.29l-0.12,6.07c0.01,0.1,0.01,0.17,0.03,0.23c0.01,0.05,0.06,0.08,0.14,0.08c0.26,0,0.45-0.16,0.57-0.49
	l1.4-3.86c0.11-0.31,0.27-0.59,0.47-0.85c0.2-0.26,0.44-0.48,0.7-0.65c0.26-0.18,0.54-0.32,0.84-0.42c0.3-0.1,0.6-0.15,0.91-0.15
	c0.44,0,0.79,0.14,1.04,0.42c0.25,0.28,0.37,0.66,0.35,1.15l-0.16,4.54c0,0.1,0,0.17,0.02,0.23c0.02,0.05,0.07,0.08,0.15,0.08
	c0.26,0,0.45-0.16,0.57-0.49l2.14-5.89h1.8l-2.2,6.03c-0.11,0.31-0.27,0.59-0.47,0.85c-0.2,0.26-0.44,0.48-0.7,0.65
	c-0.26,0.18-0.54,0.32-0.84,0.42c-0.3,0.1-0.6,0.15-0.9,0.15c-0.2,0-0.38-0.03-0.56-0.09c-0.18-0.06-0.33-0.14-0.45-0.25
	c-0.13-0.11-0.23-0.25-0.29-0.42c-0.07-0.17-0.1-0.36-0.1-0.57l0.21-4.75c0.01-0.23-0.08-0.34-0.28-0.34
	c-0.21,0-0.37,0.13-0.46,0.39l-1.44,3.95c-0.11,0.31-0.27,0.59-0.47,0.85c-0.2,0.26-0.44,0.48-0.7,0.65
	c-0.26,0.18-0.54,0.32-0.84,0.42c-0.3,0.1-0.6,0.15-0.9,0.15c-0.2,0-0.38-0.03-0.55-0.09c-0.17-0.06-0.32-0.14-0.45-0.26
	c-0.13-0.11-0.23-0.26-0.3-0.43c-0.07-0.17-0.11-0.37-0.11-0.6l0.05-6.73H57.4z"/>
<path class="st0" d="M75.23,9h-4.22c-0.19,0-0.37,0.07-0.56,0.21c-0.19,0.14-0.32,0.31-0.39,0.51c-0.07,0.2-0.07,0.36,0.01,0.5
	c0.08,0.14,0.22,0.21,0.43,0.21h4.21l-0.62,1.71h-4.22c-0.19,0-0.37,0.07-0.56,0.21c-0.19,0.14-0.32,0.32-0.4,0.53
	c-0.07,0.2-0.07,0.38,0.01,0.52c0.08,0.14,0.22,0.21,0.42,0.21h4.21l-0.62,1.71h-4.01c-0.48,0-0.86-0.07-1.14-0.21
	c-0.28-0.14-0.48-0.32-0.61-0.56c-0.12-0.23-0.18-0.5-0.17-0.79c0.01-0.29,0.08-0.6,0.19-0.91c0.05-0.15,0.12-0.3,0.21-0.47
	c0.09-0.17,0.2-0.32,0.32-0.47c0.12-0.15,0.26-0.28,0.41-0.39c0.15-0.11,0.32-0.2,0.5-0.26c-0.27-0.15-0.41-0.39-0.42-0.69
	c-0.01-0.31,0.06-0.67,0.21-1.08c0.26-0.71,0.68-1.26,1.27-1.65c0.59-0.39,1.3-0.58,2.15-0.58h4.01L75.23,9z"/>
<path class="st0" d="M80.09,8.98c-0.04,0-0.09,0.04-0.15,0.12l-4.46,6.24h-1.81l5.01-6.98c0.28-0.39,0.6-0.67,0.95-0.85
	c0.35-0.18,0.73-0.26,1.12-0.26c0.39,0,0.7,0.09,0.93,0.26c0.23,0.18,0.34,0.46,0.33,0.85l-0.07,6.98h-1.81l0.07-6.24
	c0-0.08-0.02-0.12-0.05-0.12H80.09z"/>
<path class="st0" d="M83.59,12.86c0.29-0.79,0.74-1.39,1.35-1.81c0.61-0.41,1.32-0.62,2.13-0.62h1.62c0.2,0,0.39-0.07,0.57-0.21
	c0.19-0.14,0.31-0.31,0.38-0.5c0.07-0.2,0.07-0.37-0.02-0.51C89.53,9.07,89.4,9,89.21,9h-4.22l0.62-1.71h4.01
	c0.46,0,0.83,0.07,1.11,0.2c0.28,0.13,0.49,0.31,0.62,0.53c0.13,0.22,0.19,0.48,0.18,0.77c-0.01,0.29-0.07,0.6-0.19,0.93
	c-0.11,0.3-0.26,0.6-0.46,0.89c-0.2,0.29-0.44,0.55-0.74,0.78c-0.29,0.23-0.63,0.41-1.01,0.56c-0.38,0.14-0.81,0.21-1.28,0.21h-0.82
	l3.06,1.52l-0.69,1.9l-4.26-2.28l-0.75,2.06h-1.71L83.59,12.86z"/>
<path class="st0" d="M19.42,16.77h1.2c0.14,0,0.26,0.02,0.37,0.06c0.11,0.04,0.19,0.1,0.25,0.18c0.06,0.08,0.09,0.19,0.09,0.31
	c0,0.13-0.04,0.29-0.11,0.47c-0.2,0.51-0.51,0.82-0.93,0.95l-0.01,0.01c0.09,0.02,0.17,0.05,0.24,0.1c0.06,0.05,0.11,0.11,0.13,0.2
	c0.02,0.08,0.02,0.19,0,0.32c-0.02,0.13-0.07,0.28-0.14,0.46c-0.07,0.18-0.16,0.34-0.27,0.48c-0.11,0.14-0.24,0.26-0.38,0.36
	c-0.14,0.1-0.29,0.18-0.46,0.23c-0.16,0.05-0.33,0.08-0.51,0.08h-1.18L19.42,16.77z M19.1,20.46c0.18,0,0.34-0.06,0.48-0.19
	c0.15-0.12,0.27-0.31,0.37-0.56c0.09-0.23,0.11-0.4,0.05-0.53c-0.05-0.12-0.17-0.19-0.35-0.19h-0.55l-0.59,1.45H19.1z M19.77,18.54
	c0.18,0,0.34-0.06,0.48-0.18c0.14-0.12,0.25-0.28,0.33-0.48c0.05-0.13,0.08-0.23,0.08-0.31c0-0.08-0.02-0.14-0.05-0.18
	c-0.04-0.04-0.09-0.07-0.16-0.09c-0.07-0.02-0.14-0.02-0.23-0.02h-0.42l-0.51,1.26H19.77z"/>
<path class="st0" d="M23.79,16.77h1.31c0.13,0,0.24,0.02,0.34,0.06c0.1,0.04,0.17,0.1,0.23,0.19c0.05,0.09,0.07,0.2,0.07,0.34
	c-0.01,0.14-0.05,0.3-0.13,0.5c-0.11,0.27-0.26,0.5-0.44,0.69c-0.18,0.19-0.38,0.3-0.61,0.34l0,0.01c0.18,0.02,0.29,0.09,0.33,0.22
	c0.04,0.13,0.01,0.34-0.1,0.64c-0.05,0.14-0.11,0.28-0.17,0.44c-0.06,0.15-0.11,0.29-0.16,0.42c-0.03,0.1-0.04,0.18-0.03,0.24
	c0.01,0.06,0.03,0.1,0.06,0.13h-0.67c-0.01-0.04-0.01-0.09,0-0.15s0.03-0.14,0.05-0.22c0.04-0.12,0.09-0.25,0.14-0.38
	c0.02-0.06,0.05-0.13,0.08-0.2c0.03-0.07,0.05-0.14,0.08-0.22c0.09-0.24,0.12-0.4,0.08-0.51c-0.04-0.1-0.15-0.15-0.36-0.15h-0.48
	l-0.74,1.82h-0.59L23.79,16.77z M24.09,18.64c0.19,0,0.36-0.06,0.51-0.18c0.15-0.12,0.27-0.29,0.36-0.5
	c0.09-0.22,0.11-0.39,0.07-0.51c-0.04-0.12-0.16-0.17-0.36-0.17h-0.51l-0.55,1.36H24.09z"/>
<path class="st0" d="M28.85,16.77h0.76l-0.73,4.2h-0.62l0.19-1.03h-1.09l-0.66,1.03h-0.62L28.85,16.77z M28.58,19.4l0.41-2.07h-0.01
	L27.7,19.4H28.58z"/>
<polygon class="st0" points="32.42,16.77 33.15,16.77 32.95,19.9 32.97,19.9 34.24,16.77 34.8,16.77 33.09,20.97 32.37,20.97 
	32.59,17.76 32.58,17.76 31.28,20.97 30.71,20.97 "/>
<path class="st0" d="M36.98,16.77h1.06c0.29,0,0.5,0.05,0.64,0.15c0.13,0.1,0.21,0.25,0.22,0.43c0.01,0.19-0.02,0.41-0.09,0.66
	c-0.08,0.26-0.18,0.54-0.3,0.85c-0.13,0.31-0.26,0.59-0.39,0.85c-0.13,0.26-0.28,0.48-0.45,0.66c-0.17,0.19-0.36,0.33-0.57,0.43
	c-0.22,0.1-0.47,0.15-0.76,0.15h-1.06L36.98,16.77z M36.07,20.46h0.49c0.12,0,0.24-0.03,0.35-0.08c0.11-0.05,0.22-0.14,0.32-0.26
	c0.1-0.12,0.21-0.29,0.32-0.49c0.11-0.21,0.23-0.46,0.35-0.77c0.12-0.29,0.21-0.54,0.27-0.75c0.06-0.2,0.09-0.37,0.08-0.49
	c0-0.13-0.04-0.22-0.11-0.27c-0.07-0.05-0.17-0.08-0.29-0.08h-0.49L36.07,20.46z"/>
<polygon class="st0" points="41.41,16.77 42.01,16.77 40.3,20.97 39.71,20.97 "/>
<polygon class="st0" points="44.16,16.77 44.89,16.77 44.7,19.9 44.71,19.9 45.98,16.77 46.54,16.77 44.83,20.97 44.11,20.97 
	44.33,17.76 44.32,17.76 43.02,20.97 42.46,20.97 "/>
<path class="st0" d="M49.05,20.48h-0.01c-0.16,0.2-0.32,0.34-0.48,0.44c-0.16,0.09-0.35,0.14-0.57,0.14c-0.21,0-0.36-0.04-0.46-0.13
	c-0.1-0.09-0.16-0.22-0.18-0.4c-0.01-0.18,0.01-0.41,0.09-0.68c0.07-0.27,0.18-0.6,0.34-0.97c0.3-0.75,0.62-1.3,0.96-1.65
	c0.34-0.35,0.73-0.53,1.16-0.53c0.23,0,0.4,0.04,0.51,0.14c0.11,0.09,0.17,0.2,0.2,0.33c0.03,0.13,0.02,0.26-0.01,0.4
	c-0.03,0.14-0.06,0.26-0.1,0.35l-0.03,0.08H49.9l0.04-0.1c0.03-0.08,0.06-0.16,0.07-0.24c0.02-0.08,0.02-0.15,0.01-0.22
	c-0.01-0.07-0.05-0.12-0.1-0.16c-0.05-0.04-0.13-0.06-0.23-0.06c-0.1,0-0.21,0.02-0.31,0.07c-0.1,0.05-0.2,0.13-0.31,0.26
	c-0.1,0.12-0.21,0.29-0.33,0.51c-0.11,0.22-0.24,0.49-0.37,0.82c-0.14,0.34-0.24,0.62-0.31,0.84c-0.07,0.22-0.1,0.39-0.1,0.52
	c0,0.13,0.03,0.22,0.08,0.26c0.05,0.05,0.13,0.07,0.23,0.07c0.23,0,0.43-0.09,0.6-0.29c0.18-0.2,0.36-0.53,0.54-0.99h-0.63l0.2-0.51
	h1.19l-0.9,2.21h-0.45L49.05,20.48z"/>
<path class="st0" d="M55.18,19.67l-0.04,0.11c-0.21,0.51-0.11,0.77,0.3,0.77c0.09,0,0.18-0.02,0.27-0.05
	c0.08-0.04,0.16-0.08,0.23-0.14c0.07-0.06,0.13-0.12,0.19-0.19c0.05-0.07,0.1-0.15,0.13-0.23c0.09-0.22,0.11-0.39,0.06-0.5
	c-0.05-0.11-0.15-0.19-0.29-0.25l-0.34-0.16c-0.11-0.06-0.2-0.12-0.27-0.19c-0.07-0.07-0.12-0.15-0.14-0.24
	c-0.03-0.09-0.03-0.2-0.01-0.31c0.02-0.12,0.06-0.25,0.12-0.4c0.08-0.19,0.17-0.36,0.29-0.51c0.12-0.15,0.24-0.27,0.39-0.37
	c0.14-0.1,0.29-0.18,0.46-0.23c0.16-0.05,0.33-0.08,0.51-0.08c0.24,0,0.41,0.04,0.52,0.11c0.11,0.07,0.18,0.17,0.2,0.28
	c0.03,0.11,0.02,0.23-0.01,0.36c-0.03,0.13-0.07,0.25-0.11,0.36l-0.04,0.09h-0.59l0.04-0.09c0.08-0.19,0.1-0.34,0.06-0.45
	c-0.04-0.11-0.15-0.16-0.34-0.16c-0.06,0-0.13,0.01-0.2,0.03c-0.07,0.02-0.14,0.06-0.2,0.1c-0.07,0.05-0.13,0.11-0.19,0.19
	c-0.06,0.08-0.11,0.17-0.16,0.28c-0.07,0.18-0.09,0.32-0.04,0.43c0.05,0.1,0.15,0.2,0.31,0.29l0.33,0.16
	c0.22,0.11,0.35,0.24,0.4,0.42c0.05,0.17,0.02,0.4-0.1,0.69c-0.09,0.22-0.2,0.41-0.32,0.57c-0.12,0.16-0.26,0.29-0.41,0.39
	c-0.15,0.1-0.31,0.18-0.48,0.23c-0.17,0.05-0.35,0.07-0.54,0.07c-0.23,0-0.4-0.04-0.52-0.12c-0.12-0.08-0.19-0.18-0.22-0.3
	c-0.03-0.12-0.04-0.26-0.01-0.41c0.03-0.15,0.07-0.3,0.13-0.45l0.04-0.1H55.18z"/>
<path class="st0" d="M59.57,21.05c-0.43,0-0.67-0.18-0.72-0.53c-0.05-0.35,0.07-0.9,0.38-1.65c0.3-0.75,0.62-1.3,0.96-1.65
	c0.34-0.35,0.73-0.53,1.15-0.53c0.43,0,0.67,0.18,0.72,0.53c0.05,0.35-0.07,0.9-0.38,1.65c-0.31,0.75-0.63,1.3-0.97,1.65
	C60.38,20.88,60,21.05,59.57,21.05 M59.77,20.55c0.09,0,0.18-0.02,0.27-0.06c0.1-0.04,0.2-0.12,0.3-0.24
	c0.11-0.12,0.22-0.29,0.34-0.51c0.12-0.22,0.26-0.51,0.41-0.87c0.14-0.35,0.24-0.64,0.3-0.86c0.05-0.22,0.08-0.39,0.07-0.5
	c-0.01-0.12-0.04-0.2-0.11-0.24c-0.06-0.04-0.14-0.06-0.22-0.06c-0.09,0-0.18,0.02-0.27,0.06c-0.09,0.04-0.19,0.12-0.3,0.24
	c-0.11,0.12-0.22,0.29-0.34,0.5c-0.12,0.22-0.25,0.5-0.39,0.86c-0.15,0.36-0.25,0.65-0.31,0.87c-0.06,0.22-0.08,0.39-0.07,0.51
	c0.01,0.12,0.04,0.2,0.1,0.24C59.61,20.53,59.68,20.55,59.77,20.55"/>
<polygon class="st0" points="64.56,16.77 65.16,16.77 63.68,20.4 65.12,20.4 64.89,20.97 62.86,20.97 "/>
<path class="st0" d="M69.06,16.77l-1.22,3.01c-0.11,0.27-0.14,0.47-0.1,0.59c0.04,0.12,0.16,0.18,0.34,0.18
	c0.18,0,0.34-0.06,0.48-0.18c0.14-0.12,0.27-0.31,0.38-0.59l1.22-3.01h0.59l-1.2,2.96c-0.1,0.24-0.21,0.45-0.33,0.62
	c-0.12,0.17-0.25,0.31-0.39,0.41c-0.14,0.1-0.29,0.18-0.45,0.23c-0.16,0.05-0.33,0.07-0.51,0.07c-0.18,0-0.33-0.02-0.45-0.07
	c-0.12-0.05-0.21-0.12-0.27-0.23c-0.06-0.1-0.07-0.24-0.06-0.41c0.02-0.17,0.08-0.37,0.17-0.62l1.2-2.96H69.06z"/>
<polygon class="st0" points="73.25,17.33 72.36,17.33 72.6,16.77 74.95,16.77 74.72,17.33 73.84,17.33 72.37,20.97 71.78,20.97 "/>
<polygon class="st0" points="76.82,16.77 77.42,16.77 75.71,20.97 75.12,20.97 "/>
<path class="st0" d="M78.97,21.05c-0.43,0-0.67-0.18-0.72-0.53c-0.05-0.35,0.07-0.9,0.38-1.65c0.3-0.75,0.62-1.3,0.96-1.65
	c0.34-0.35,0.73-0.53,1.15-0.53c0.43,0,0.67,0.18,0.72,0.53c0.05,0.35-0.07,0.9-0.38,1.65c-0.31,0.75-0.63,1.3-0.97,1.65
	C79.78,20.88,79.4,21.05,78.97,21.05 M79.18,20.55c0.09,0,0.18-0.02,0.27-0.06c0.1-0.04,0.2-0.12,0.3-0.24
	c0.11-0.12,0.22-0.29,0.34-0.51c0.12-0.22,0.26-0.51,0.41-0.87c0.14-0.35,0.24-0.64,0.3-0.86c0.05-0.22,0.08-0.39,0.07-0.5
	c-0.01-0.12-0.04-0.2-0.11-0.24c-0.06-0.04-0.14-0.06-0.22-0.06c-0.09,0-0.18,0.02-0.27,0.06c-0.09,0.04-0.19,0.12-0.3,0.24
	c-0.11,0.12-0.22,0.29-0.34,0.5c-0.12,0.22-0.25,0.5-0.39,0.86c-0.15,0.36-0.25,0.65-0.31,0.87c-0.06,0.22-0.08,0.39-0.07,0.51
	c0.01,0.12,0.04,0.2,0.1,0.24C79.01,20.53,79.09,20.55,79.18,20.55"/>
<polygon class="st0" points="84.04,16.77 84.76,16.77 84.57,19.9 84.58,19.9 85.85,16.77 86.41,16.77 84.71,20.97 83.98,20.97 
	84.21,17.76 84.2,17.76 82.89,20.97 82.33,20.97 "/>
<path class="st0" d="M87.87,19.67l-0.04,0.11c-0.21,0.51-0.11,0.77,0.3,0.77c0.09,0,0.18-0.02,0.27-0.05
	c0.08-0.04,0.16-0.08,0.23-0.14c0.07-0.06,0.13-0.12,0.19-0.19c0.05-0.07,0.1-0.15,0.13-0.23c0.09-0.22,0.11-0.39,0.06-0.5
	c-0.05-0.11-0.15-0.19-0.29-0.25l-0.34-0.16c-0.11-0.06-0.2-0.12-0.27-0.19c-0.07-0.07-0.12-0.15-0.14-0.24
	c-0.03-0.09-0.03-0.2-0.01-0.31c0.02-0.12,0.06-0.25,0.12-0.4c0.08-0.19,0.17-0.36,0.29-0.51c0.12-0.15,0.24-0.27,0.39-0.37
	c0.14-0.1,0.29-0.18,0.46-0.23c0.16-0.05,0.33-0.08,0.51-0.08c0.24,0,0.41,0.04,0.52,0.11c0.11,0.07,0.18,0.17,0.2,0.28
	c0.03,0.11,0.02,0.23-0.01,0.36c-0.03,0.13-0.07,0.25-0.11,0.36l-0.04,0.09h-0.59l0.04-0.09c0.08-0.19,0.1-0.34,0.06-0.45
	c-0.04-0.11-0.15-0.16-0.34-0.16c-0.06,0-0.13,0.01-0.2,0.03c-0.07,0.02-0.14,0.06-0.2,0.1c-0.07,0.05-0.13,0.11-0.19,0.19
	c-0.06,0.08-0.11,0.17-0.16,0.28c-0.07,0.18-0.09,0.32-0.04,0.43c0.05,0.1,0.15,0.2,0.31,0.29l0.33,0.16
	c0.22,0.11,0.35,0.24,0.4,0.42c0.05,0.17,0.02,0.4-0.1,0.69c-0.09,0.22-0.2,0.41-0.32,0.57c-0.12,0.16-0.26,0.29-0.41,0.39
	c-0.15,0.1-0.31,0.18-0.48,0.23c-0.17,0.05-0.35,0.07-0.54,0.07c-0.23,0-0.4-0.04-0.52-0.12c-0.12-0.08-0.19-0.18-0.22-0.3
	c-0.03-0.12-0.04-0.26-0.01-0.41c0.03-0.15,0.07-0.3,0.13-0.45l0.04-0.1H87.87z"/>
<path class="st1" d="M16.84,12.16c-0.35-1.51-1.07-2.82-2.22-3.88c-1.91-1.75-4.17-2.38-6.71-1.93c-1.67,0.29-3.09,1.1-4.23,2.36
	c-1.45,1.61-2.1,3.51-1.94,5.68c0.07,1.02,0.36,1.97,0.83,2.87c0.03,0.06,0.07,0.12,0.12,0.2c0.19-0.33,0.37-0.63,0.54-0.94
	c1.06-1.84,2.13-3.69,3.19-5.53c0.04-0.07,0.09-0.09,0.17-0.09c0.59,0,1.19,0,1.78,0c0.03,0,0.06,0.01,0.09,0.01
	c-1.56,2.69-3.1,5.38-4.66,8.08c0.22,0.2,0.43,0.39,0.66,0.57c1.55,1.26,3.32,1.84,5.31,1.75c0.48-0.02,0.95-0.09,1.41-0.2
	c1.66-0.42,3.04-1.27,4.13-2.59c0.98-1.19,1.54-2.55,1.67-4.08C17.04,13.68,17.01,12.91,16.84,12.16 M7.67,16.51
	c-0.02,0.03-0.08,0.07-0.12,0.07c-0.61,0-1.22,0-1.83,0c-0.01,0-0.02,0-0.05-0.01c0.03-0.05,0.05-0.09,0.07-0.14
	c1.03-1.82,2.07-3.63,3.1-5.45c0.04-0.07,0.08-0.09,0.16-0.09c0.6,0,1.2,0,1.81,0c0.02,0,0.04,0,0.07,0.01
	c-0.13,0.23-0.26,0.45-0.39,0.67c-0.87,1.53-1.74,3.05-2.61,4.58C7.82,16.27,7.75,16.4,7.67,16.51 M9.96,16.58
	c-0.61,0-1.23,0-1.84,0.01c-0.01,0-0.03-0.01-0.06-0.01c0.11-0.19,0.21-0.37,0.32-0.56c0.96-1.68,1.91-3.36,2.87-5.03
	c0.02-0.04,0.08-0.08,0.12-0.08c0.62-0.01,1.24,0,1.85,0c0.01,0,0.03,0,0.06,0.01c-0.07,0.13-0.14,0.24-0.2,0.36
	c-0.99,1.74-1.98,3.48-2.97,5.22C10.07,16.54,10.04,16.58,9.96,16.58 M15.06,11.98c-0.85,1.49-1.7,2.98-2.55,4.47
	c-0.05,0.09-0.1,0.13-0.21,0.13c-0.58,0-1.16,0-1.75,0c-0.03,0-0.05,0-0.09,0c0.02-0.04,0.03-0.06,0.04-0.09
	c1.04-1.83,2.09-3.66,3.13-5.48c0.05-0.09,0.11-0.12,0.21-0.12c0.6,0,1.2,0,1.83,0C15.46,11.27,15.26,11.63,15.06,11.98"/>
<path class="st0" d="M68.13,5.07c0.07-0.02,0.13-0.05,0.18-0.09c0.05-0.04,0.11-0.07,0.18-0.09c0.02,0.03,0.03,0.07,0.04,0.12
	c0.01,0.04,0.01,0.08-0.01,0.11c-0.05,0.06-0.09,0.14-0.12,0.22c-0.03,0.09-0.06,0.17-0.09,0.24c-0.07-0.01-0.13,0-0.18,0.03
	c-0.05,0.03-0.1,0.07-0.14,0.1c-0.05,0.04-0.09,0.07-0.14,0.09c-0.05,0.03-0.11,0.03-0.19,0c-0.03-0.01-0.06-0.02-0.07-0.05
	s-0.03-0.06-0.06-0.08c0-0.09,0.01-0.17,0.03-0.24c0.02-0.07,0.04-0.15,0.06-0.22c0.02-0.07,0.04-0.14,0.06-0.22
	c0.02-0.07,0.03-0.15,0.03-0.24c0.07-0.08,0.12-0.16,0.16-0.24c0.04-0.09,0.07-0.2,0.08-0.34c0.03-0.05,0.05-0.1,0.08-0.14
	c0.03-0.05,0.06-0.09,0.1-0.13c0.01-0.07,0.03-0.14,0.06-0.2c0.03-0.07,0.06-0.13,0.09-0.2c0.03-0.07,0.06-0.14,0.09-0.21
	c0.03-0.07,0.05-0.15,0.07-0.23c-0.06,0.03-0.11,0.07-0.16,0.11c-0.05,0.04-0.09,0.09-0.14,0.14c-0.04,0.05-0.09,0.09-0.14,0.14
	c-0.05,0.04-0.1,0.08-0.16,0.11c-0.02,0.03-0.03,0.07-0.05,0.09c-0.02,0.03-0.03,0.06-0.05,0.08c-0.04,0.02-0.09,0.04-0.15,0.06
	c-0.06,0.02-0.11,0.03-0.17,0.04c-0.06,0-0.11,0-0.15-0.02c-0.05-0.02-0.08-0.06-0.1-0.12c-0.03,0.02-0.05,0.04-0.07,0.07
	c-0.02,0.03-0.04,0.06-0.06,0.1c-0.02,0.04-0.03,0.07-0.03,0.11c0,0.04,0,0.07,0.02,0.1C67,4.1,66.96,4.15,66.93,4.2
	c-0.04,0.05-0.05,0.12-0.03,0.19c-0.09,0.1-0.16,0.22-0.19,0.35c-0.04,0.13-0.07,0.27-0.1,0.43c-0.03,0.01-0.05,0.02-0.07,0.03
	c-0.02,0.02-0.03,0.03-0.05,0.05c-0.01,0.02-0.03,0.03-0.04,0.04C66.43,5.3,66.41,5.3,66.39,5.3c-0.07,0.01-0.13-0.02-0.18-0.09
	c-0.05-0.07-0.07-0.14-0.07-0.22c0-0.04,0.01-0.08,0.03-0.13c0.02-0.04,0.04-0.08,0.06-0.12c0.02-0.04,0.04-0.08,0.06-0.11
	c0.02-0.04,0.04-0.07,0.05-0.1c0.01-0.02,0.01-0.03,0-0.05c-0.01-0.02-0.01-0.03,0-0.05c0.02-0.03,0.04-0.06,0.06-0.08
	c0.02-0.02,0.04-0.04,0.04-0.05c0.01-0.1,0.02-0.18,0.05-0.26c0.03-0.07,0.08-0.14,0.14-0.18c0.01-0.06,0.03-0.11,0.06-0.16
	c0.03-0.05,0.05-0.1,0.08-0.15c0.03-0.05,0.05-0.1,0.08-0.15c0.02-0.05,0.04-0.11,0.05-0.18c0.04-0.05,0.08-0.11,0.1-0.16
	c0.03-0.06,0.07-0.11,0.11-0.15c0.01-0.07,0.02-0.13,0.04-0.19c0.02-0.05,0.05-0.11,0.07-0.16c0.02-0.05,0.05-0.11,0.06-0.17
	c0.02-0.06,0.03-0.13,0.03-0.21c0.03-0.02,0.06-0.03,0.09-0.05c0.03-0.02,0.07-0.03,0.11-0.03c0.04,0,0.07,0,0.1,0.01
	c0.03,0.01,0.06,0.03,0.08,0.07c-0.01,0.04-0.01,0.08,0,0.12c0.01,0.03,0.01,0.07,0.03,0.09c0.01,0.03,0.02,0.06,0.03,0.08
	c0.01,0.03,0.02,0.06,0.02,0.09c0,0.05-0.01,0.11-0.03,0.15c-0.02,0.05-0.05,0.1-0.07,0.15C67.66,2.9,67.63,2.95,67.62,3
	c-0.02,0.05-0.01,0.11,0,0.18c0.06-0.02,0.1-0.06,0.14-0.1c0.04-0.04,0.07-0.09,0.11-0.14c0.03-0.05,0.07-0.09,0.11-0.14
	c0.04-0.04,0.09-0.07,0.15-0.09c0.03-0.03,0.06-0.06,0.09-0.1c0.03-0.04,0.04-0.08,0.05-0.14c0.11-0.02,0.18-0.08,0.2-0.19
	c0.05,0,0.1-0.02,0.14-0.06c0.04-0.03,0.08-0.07,0.12-0.11c0.04-0.04,0.07-0.07,0.11-0.1c0.04-0.03,0.08-0.04,0.13-0.04
	c0.02,0,0.04,0.01,0.05,0.02c0.01,0.01,0.02,0.03,0.04,0.04c0.01,0.01,0.02,0.03,0.04,0.04c0.01,0.01,0.04,0.02,0.07,0.02
	c0.04,0.08,0.06,0.16,0.05,0.24c0,0.08-0.02,0.15-0.03,0.23c-0.06,0.1-0.12,0.21-0.16,0.33C69,3.02,68.96,3.14,68.92,3.28
	c-0.1,0.16-0.19,0.32-0.27,0.48c-0.08,0.16-0.17,0.32-0.27,0.47c-0.01,0.08-0.03,0.15-0.06,0.22c-0.03,0.07-0.06,0.14-0.09,0.2
	c-0.03,0.07-0.05,0.13-0.08,0.2C68.14,4.92,68.13,4.99,68.13,5.07"/>
<path class="st0" d="M70.47,4c0.03,0.02,0.04,0.04,0.05,0.07c0.01,0.03,0.02,0.05,0.05,0.06c-0.02,0.04-0.04,0.07-0.06,0.11
	c-0.02,0.03-0.04,0.07-0.05,0.11c-0.06,0-0.12,0.01-0.18,0.02c-0.06,0.01-0.12,0.03-0.17,0.04c-0.06,0.01-0.11,0.02-0.17,0.03
	c-0.06,0.01-0.11,0.01-0.17,0.01c-0.08,0.03-0.17,0.09-0.25,0.16s-0.15,0.15-0.2,0.24c-0.01,0.02-0.03,0.05-0.04,0.07
	C69.26,4.95,69.25,4.98,69.25,5c0,0.03-0.01,0.06,0,0.08c0,0.03,0.01,0.05,0.03,0.07c0.04-0.01,0.07-0.03,0.11-0.04
	c0.03-0.01,0.07-0.03,0.11-0.04c0.03-0.03,0.05-0.05,0.06-0.08c0.02-0.03,0.04-0.06,0.06-0.08c0.06-0.01,0.12-0.03,0.16-0.06
	c0.04-0.03,0.07-0.07,0.1-0.12c0.05-0.01,0.09-0.03,0.13-0.06c0.03-0.03,0.06-0.06,0.09-0.09c0.03-0.03,0.06-0.06,0.09-0.09
	c0.03-0.03,0.08-0.05,0.13-0.05c0.05,0.02,0.1,0.04,0.14,0.08c0.04,0.04,0.09,0.07,0.13,0.1c0.01,0.04,0.02,0.06,0.01,0.08
	c0,0.02-0.02,0.04-0.04,0.06c0.01,0.02,0.01,0.04,0.02,0.07c0,0.03,0.01,0.06,0.01,0.09c0,0.03,0,0.06-0.01,0.08
	c0,0.03-0.02,0.04-0.03,0.06c0.02,0.03,0.03,0.06,0.03,0.09c0,0.03,0,0.07,0,0.1c0,0.03-0.01,0.07-0.01,0.1
	c0,0.03,0.01,0.07,0.02,0.1c-0.06,0.06-0.13,0.09-0.21,0.09c-0.08,0-0.16-0.01-0.23-0.03c-0.01-0.04-0.02-0.08-0.02-0.12
	c0-0.04,0-0.08,0-0.11c0-0.04-0.01-0.07-0.02-0.11c-0.01-0.03-0.03-0.07-0.06-0.09c-0.04,0-0.08,0.01-0.11,0.04
	c-0.04,0.02-0.07,0.04-0.11,0.07c-0.04,0.03-0.07,0.05-0.11,0.08c-0.03,0.03-0.07,0.05-0.1,0.07c-0.07,0.04-0.14,0.07-0.2,0.08
	c-0.06,0.01-0.14,0.02-0.23,0.02c-0.03,0-0.05,0-0.07,0.01c-0.02,0.01-0.04,0.01-0.06,0.01c-0.03-0.01-0.07-0.02-0.1-0.05
	c-0.03-0.03-0.06-0.06-0.08-0.1c-0.02-0.04-0.03-0.08-0.03-0.13c0-0.05,0.01-0.09,0.03-0.13c0-0.04-0.01-0.07-0.02-0.1
	c0.03-0.05,0.05-0.11,0.06-0.16c0.01-0.06,0.03-0.11,0.07-0.16c0.01-0.02,0.03-0.03,0.05-0.05c0.02-0.01,0.04-0.03,0.05-0.05
	c0.03-0.04,0.06-0.09,0.08-0.13c0.02-0.04,0.06-0.08,0.11-0.12c0.01-0.01,0.03-0.02,0.05-0.02c0.02,0,0.04-0.01,0.06-0.03
	c0.06-0.04,0.14-0.09,0.22-0.14c0.08-0.05,0.17-0.09,0.27-0.11C69.97,4,70.06,4,70.16,4C70.27,4.01,70.37,4,70.47,4"/>
<path class="st0" d="M71.56,4.27c0.02,0.01,0.04,0,0.06-0.01c0.02-0.01,0.04-0.02,0.06-0.03c0.02-0.01,0.04-0.02,0.06-0.03
	c0.02-0.01,0.05,0,0.08,0.02c0.03-0.03,0.07-0.06,0.13-0.1c0.05-0.04,0.11-0.06,0.16-0.09c0.06-0.02,0.11-0.03,0.16-0.02
	c0.05,0,0.09,0.04,0.11,0.09c0.03,0.08,0.02,0.15-0.04,0.2c-0.06,0.06-0.13,0.1-0.23,0.14c-0.09,0.04-0.18,0.08-0.28,0.11
	c-0.09,0.03-0.15,0.07-0.19,0.1c0.03,0.05,0.07,0.1,0.14,0.15c0.07,0.05,0.13,0.1,0.18,0.15c0.04,0.04,0.07,0.08,0.1,0.12
	c0.03,0.04,0.07,0.08,0.1,0.13c0.02,0.03,0.04,0.05,0.07,0.06c0.03,0.02,0.05,0.04,0.08,0.06c0.02,0.02,0.04,0.05,0.05,0.08
	c0.01,0.03,0.01,0.07,0,0.12c-0.01,0.06-0.04,0.1-0.09,0.12c-0.05,0.02-0.11,0.03-0.17,0.03c-0.05-0.03-0.09-0.07-0.13-0.11
	c-0.03-0.04-0.08-0.06-0.14-0.07c-0.01-0.02-0.02-0.04-0.03-0.06c-0.01-0.02-0.01-0.05-0.02-0.07c-0.01-0.02-0.02-0.04-0.03-0.05
	c-0.01-0.02-0.03-0.02-0.06-0.02v-0.1c-0.07-0.06-0.15-0.13-0.23-0.19c-0.08-0.06-0.16-0.13-0.23-0.19
	c-0.04,0.06-0.08,0.12-0.11,0.18c-0.03,0.06-0.07,0.12-0.1,0.18c-0.04,0.06-0.08,0.11-0.13,0.16c-0.05,0.05-0.11,0.08-0.19,0.1
	c-0.04-0.02-0.07-0.05-0.08-0.09c-0.01-0.04,0-0.08,0.01-0.12c0.01-0.04,0.03-0.08,0.05-0.13c0.02-0.04,0.04-0.09,0.05-0.13
	c0.04-0.02,0.07-0.06,0.1-0.1c0.03-0.04,0.05-0.09,0.07-0.14c0.02-0.05,0.05-0.09,0.07-0.14c0.03-0.04,0.06-0.08,0.1-0.1
	c0.1-0.23,0.21-0.45,0.33-0.66c0.11-0.22,0.23-0.43,0.35-0.64c0.12-0.21,0.24-0.42,0.36-0.63c0.12-0.21,0.23-0.42,0.35-0.64
	c0-0.05,0.02-0.09,0.04-0.13c0.03-0.04,0.05-0.08,0.08-0.12c0.03-0.04,0.04-0.08,0.06-0.12c0.01-0.04,0.01-0.09-0.01-0.14
	c0.03-0.06,0.07-0.09,0.11-0.1c0.04-0.01,0.08-0.01,0.12,0.01c0.04,0.02,0.07,0.05,0.1,0.1C73,1.48,73.01,1.53,73,1.6
	C73,1.65,72.98,1.7,72.94,1.75c-0.04,0.05-0.07,0.09-0.09,0.14c-0.02,0.03-0.03,0.06-0.04,0.1c-0.01,0.03-0.02,0.06-0.04,0.09
	c-0.02,0.03-0.03,0.06-0.05,0.08c-0.02,0.02-0.04,0.04-0.05,0.07c-0.02,0.04-0.04,0.09-0.04,0.14c-0.01,0.05-0.03,0.09-0.05,0.13
	c-0.08,0.15-0.17,0.3-0.26,0.46C72.2,3.1,72.11,3.25,72.02,3.4c-0.09,0.15-0.17,0.3-0.25,0.44C71.69,3.99,71.62,4.13,71.56,4.27"/>
<path class="st0" d="M72.83,4.87c0,0.06,0,0.1,0.02,0.14c0.02,0.04,0.04,0.07,0.07,0.09c0.03,0.02,0.06,0.04,0.1,0.05
	c0.04,0.01,0.08,0.03,0.11,0.04c0.14,0,0.26-0.02,0.36-0.07c0.11-0.05,0.2-0.1,0.29-0.17c0.09-0.07,0.17-0.14,0.25-0.22
	c0.08-0.08,0.16-0.15,0.25-0.22c0.03-0.03,0.06-0.08,0.09-0.12c0.03-0.05,0.06-0.09,0.09-0.14c0.03-0.04,0.07-0.08,0.1-0.11
	c0.04-0.03,0.08-0.05,0.13-0.05c0.02,0.03,0.02,0.06,0.01,0.1c-0.01,0.03-0.03,0.07-0.04,0.11c-0.02,0.04-0.04,0.07-0.06,0.11
	c-0.02,0.04-0.03,0.08-0.03,0.12c-0.04,0.04-0.09,0.09-0.14,0.15c-0.05,0.06-0.11,0.11-0.16,0.17c-0.06,0.06-0.12,0.12-0.19,0.18
	c-0.06,0.06-0.13,0.11-0.21,0.16c-0.04,0.03-0.08,0.07-0.11,0.11c-0.04,0.04-0.08,0.06-0.13,0.08c-0.08,0.04-0.17,0.06-0.28,0.08
	c-0.1,0.01-0.2,0.01-0.3,0c-0.1-0.01-0.19-0.04-0.26-0.08c-0.08-0.04-0.13-0.11-0.16-0.19c0.01-0.06,0-0.11-0.01-0.14
	c-0.02-0.04-0.04-0.07-0.06-0.09c-0.03-0.03-0.06-0.05-0.09-0.07c-0.03-0.02-0.06-0.05-0.08-0.09c0.04-0.1,0.08-0.2,0.13-0.3
	c0.05-0.1,0.11-0.19,0.18-0.27c0.07-0.08,0.15-0.13,0.25-0.17c0.1-0.04,0.21-0.04,0.34,0c0.08,0.09,0.11,0.19,0.11,0.28
	c0,0.09-0.03,0.18-0.09,0.25c-0.05,0.07-0.13,0.14-0.22,0.19C73.02,4.82,72.93,4.85,72.83,4.87 M72.8,4.55
	c0.07-0.02,0.14-0.04,0.2-0.08c0.06-0.04,0.1-0.09,0.13-0.15c-0.08-0.02-0.15,0-0.21,0.05C72.86,4.42,72.82,4.48,72.8,4.55"/>
<path class="st0" d="M77.65,1.97c0.03,0.03,0.06,0.09,0.08,0.16c0.01,0.01,0.03,0.02,0.05,0.01c0.02,0,0.04,0,0.06,0
	c0,0.04-0.01,0.07-0.03,0.08c-0.02,0.01-0.04,0.03-0.04,0.05c0.01,0.05,0.02,0.1,0.02,0.15c0,0.05,0,0.09,0.01,0.14
	c-0.07,0.1-0.14,0.21-0.2,0.32c-0.06,0.11-0.13,0.22-0.19,0.33c-0.09,0.07-0.17,0.14-0.23,0.23c-0.06,0.09-0.13,0.17-0.19,0.25
	c-0.04,0.03-0.09,0.07-0.13,0.1c-0.04,0.03-0.08,0.06-0.12,0.08c-0.04,0.02-0.09,0.05-0.14,0.06c-0.05,0.02-0.11,0.03-0.18,0.04
	c-0.05,0.01-0.1,0.02-0.15,0.04c-0.05,0.02-0.09,0.03-0.14,0.03c-0.08,0-0.16-0.02-0.24-0.06c-0.08-0.04-0.16-0.09-0.22-0.16
	c-0.07-0.07-0.13-0.14-0.18-0.23c-0.05-0.09-0.09-0.18-0.11-0.27c-0.02-0.07-0.03-0.13-0.03-0.2c0-0.07-0.01-0.14-0.02-0.2
	c-0.01-0.03-0.02-0.06-0.04-0.09s-0.03-0.06-0.05-0.09s-0.02-0.06-0.02-0.09c0-0.03,0.01-0.06,0.04-0.1
	c-0.02-0.03-0.03-0.05-0.04-0.09c-0.01-0.03-0.01-0.07-0.01-0.1c0-0.03,0.01-0.07,0.01-0.1c0.01-0.03,0.02-0.06,0.03-0.08
	c0.04-0.02,0.09-0.03,0.14-0.03c0.05,0,0.1,0,0.14,0.01c0.05,0.01,0.09,0.03,0.12,0.05c0.03,0.03,0.06,0.06,0.07,0.09
	c-0.01,0.02-0.02,0.04-0.02,0.06c0,0.02,0,0.05,0,0.08c0,0.03,0,0.05,0,0.08c0,0.03-0.01,0.05-0.03,0.06
	c0.02,0.07,0.03,0.15,0.04,0.23c0,0.08,0.01,0.15,0.02,0.22c0.01,0.07,0.03,0.13,0.05,0.19c0.03,0.06,0.07,0.11,0.13,0.15
	c0.04-0.01,0.08-0.01,0.1,0c0.02,0.01,0.05,0.02,0.09,0.03c0.07,0.01,0.13,0,0.18-0.02c0.05-0.02,0.1-0.05,0.14-0.08
	c0.04-0.03,0.08-0.07,0.11-0.12c0.03-0.04,0.07-0.09,0.11-0.12c0.07-0.01,0.12-0.03,0.16-0.07c0.04-0.04,0.08-0.08,0.11-0.13
	c0.03-0.05,0.06-0.1,0.09-0.15s0.07-0.1,0.11-0.13c-0.01-0.04-0.01-0.09,0.01-0.14c0.02-0.05,0.04-0.1,0.08-0.13
	c-0.01-0.02-0.01-0.03-0.01-0.05c0-0.02,0-0.03,0-0.06c0.04-0.02,0.07-0.04,0.1-0.07c0.03-0.03,0.06-0.05,0.1-0.08
	c0.03-0.02,0.07-0.04,0.11-0.05C77.56,1.96,77.6,1.96,77.65,1.97 M76.36,4.63c-0.03,0.01-0.06,0.03-0.08,0.06
	c-0.02,0.03-0.04,0.06-0.05,0.1c-0.01,0.04-0.01,0.07-0.01,0.11c0,0.04,0.02,0.07,0.04,0.1c-0.02,0.05-0.04,0.09-0.08,0.12
	c-0.04,0.03-0.07,0.06-0.09,0.1c0.01,0.1-0.01,0.19-0.07,0.25c-0.05,0.06-0.12,0.09-0.19,0.1c-0.07,0.01-0.14-0.01-0.21-0.05
	c-0.07-0.04-0.11-0.11-0.12-0.21c-0.01-0.1,0-0.19,0.04-0.27c0.04-0.08,0.08-0.15,0.13-0.21c-0.01-0.07-0.01-0.13,0-0.2
	c0.02-0.06,0.04-0.12,0.08-0.16c-0.02-0.07-0.01-0.13,0-0.19c0.02-0.06,0.05-0.11,0.09-0.15C75.89,4.1,75.94,4.08,76,4.07
	c0.06-0.01,0.11,0,0.17,0.03c0.01,0.03,0.02,0.07,0.04,0.1c0.02,0.03,0.03,0.06,0.05,0.1c0.01,0.03,0.03,0.07,0.04,0.1
	c0.01,0.04,0.01,0.08,0.01,0.13c0,0.03,0.01,0.05,0.03,0.05C76.35,4.59,76.36,4.61,76.36,4.63"/>
<path class="st0" d="M78.32,4c0.02,0.05,0.05,0.08,0.09,0.08c0.03,0.05,0.07,0.11,0.1,0.17c0.03,0.06,0.07,0.12,0.11,0.18
	c0.03,0.13,0.02,0.26-0.04,0.37c-0.06,0.12-0.13,0.23-0.2,0.33c-0.03,0.04-0.08,0.08-0.14,0.12c-0.06,0.04-0.11,0.08-0.15,0.11
	c-0.01,0.01-0.01,0.02-0.01,0.03c0,0.01-0.01,0.02-0.01,0.02C78,5.45,77.93,5.47,77.85,5.47c-0.08,0-0.15,0.01-0.22,0.01
	c-0.02-0.02-0.04-0.03-0.06-0.05c-0.03-0.01-0.05-0.02-0.08-0.03c-0.03-0.01-0.05-0.02-0.08-0.04c-0.02-0.01-0.04-0.03-0.05-0.05
	c-0.01-0.04-0.02-0.08-0.03-0.11c-0.01-0.03-0.02-0.07-0.03-0.1c-0.01-0.03-0.01-0.07-0.02-0.11c0-0.04,0-0.08,0-0.13
	c0.01-0.03,0.02-0.08,0.04-0.13c0.02-0.05,0.05-0.1,0.08-0.16c0.03-0.06,0.06-0.11,0.1-0.16c0.03-0.05,0.07-0.09,0.09-0.12
	c0.04-0.04,0.09-0.08,0.14-0.13c0.06-0.05,0.09-0.11,0.11-0.17c0.04-0.02,0.09-0.02,0.12-0.02c0.04,0,0.08,0.01,0.11,0.02
	c0.04,0.01,0.07,0.01,0.11,0.02C78.24,4.02,78.28,4.02,78.32,4 M78.08,4.38c-0.02,0.03-0.04,0.06-0.05,0.1
	c-0.02,0.03-0.04,0.06-0.07,0.09c-0.03,0.03-0.06,0.05-0.09,0.07c-0.03,0.02-0.08,0.03-0.13,0.03c-0.01,0.03-0.03,0.06-0.06,0.11
	c-0.03,0.05-0.05,0.09-0.07,0.14c-0.02,0.05-0.03,0.09-0.02,0.13c0,0.04,0.02,0.07,0.07,0.08c0.03,0.01,0.05,0.01,0.07,0
	c0.02-0.01,0.03-0.02,0.05-0.03c0.02-0.01,0.03-0.02,0.05-0.03c0.02-0.01,0.05-0.01,0.08,0c0.05-0.03,0.1-0.07,0.15-0.12
	c0.06-0.04,0.1-0.09,0.14-0.14c0.04-0.05,0.06-0.11,0.07-0.17c0.01-0.06-0.01-0.13-0.05-0.2c-0.03-0.01-0.05-0.01-0.07-0.01
	C78.12,4.41,78.1,4.4,78.08,4.38"/>
<path class="st0" d="M79.43,3.76c0.05,0.07,0.07,0.13,0.05,0.2c-0.01,0.07-0.04,0.14-0.08,0.21c-0.04,0.07-0.08,0.14-0.14,0.2
	c-0.05,0.07-0.09,0.13-0.12,0.19c-0.04,0.09-0.07,0.17-0.09,0.24c-0.02,0.07-0.04,0.15-0.07,0.24c0.11-0.03,0.2-0.08,0.29-0.14
	c0.09-0.07,0.16-0.15,0.23-0.23c0.07-0.09,0.13-0.18,0.19-0.28c0.06-0.1,0.11-0.2,0.17-0.31c0.07-0.05,0.13-0.07,0.2-0.04
	c0.07,0.03,0.11,0.08,0.12,0.16c-0.01,0.08-0.04,0.16-0.08,0.25C80.07,4.52,80.03,4.6,80,4.69c-0.03,0.08-0.06,0.17-0.07,0.25
	c-0.01,0.08,0.02,0.17,0.08,0.24c-0.04,0.04-0.08,0.1-0.12,0.16c-0.03,0.06-0.07,0.13-0.11,0.18c-0.04,0.06-0.09,0.1-0.14,0.13
	c-0.05,0.03-0.12,0.03-0.21,0.01c-0.02-0.03-0.04-0.07-0.05-0.09c-0.01-0.03-0.03-0.06-0.04-0.09c0.01-0.04,0.02-0.07,0.04-0.09
	c0.02-0.03,0.02-0.07,0.01-0.12c-0.05,0.02-0.1,0.04-0.15,0.06c-0.04,0.03-0.09,0.05-0.13,0.07c-0.04,0.02-0.09,0.04-0.14,0.06
	c-0.05,0.02-0.1,0.02-0.16,0.02c-0.03-0.02-0.05-0.03-0.07-0.05c-0.02-0.02-0.05-0.03-0.07-0.05c-0.03-0.17-0.03-0.34,0.03-0.5
	c0.05-0.16,0.12-0.3,0.21-0.41c0.01-0.03,0.01-0.04,0-0.05c-0.01-0.01-0.01-0.02-0.01-0.04c0.03-0.03,0.06-0.07,0.09-0.1
	c0.03-0.03,0.06-0.07,0.08-0.12c0.01-0.02,0.01-0.04,0.01-0.06c0-0.03,0-0.05,0.01-0.06c0.01,0,0.01,0,0.02-0.01
	c0.01-0.01,0.01-0.01,0.02-0.02c0.01,0,0.01-0.01,0.02-0.03c0.02-0.03,0.03-0.06,0.04-0.09c0.01-0.04,0.03-0.07,0.05-0.1
	c0.02-0.03,0.04-0.05,0.08-0.06C79.33,3.73,79.38,3.73,79.43,3.76"/>
<path class="st0" d="M81.65,4.32c-0.02,0.03-0.03,0.06-0.03,0.09c0,0.03-0.01,0.06-0.03,0.09c-0.04,0.03-0.09,0.04-0.15,0.02
	c-0.05-0.01-0.11-0.03-0.16-0.04c-0.06-0.02-0.11-0.02-0.15-0.02c-0.05,0-0.08,0.04-0.11,0.1c-0.05,0.01-0.09,0.03-0.13,0.05
	c-0.03,0.03-0.06,0.06-0.09,0.09c-0.03,0.03-0.06,0.06-0.09,0.09c-0.03,0.03-0.08,0.04-0.13,0.05c0,0.05-0.01,0.09-0.03,0.12
	c-0.01,0.03-0.03,0.07-0.05,0.1c-0.02,0.03-0.03,0.06-0.05,0.1s-0.03,0.07-0.03,0.11c-0.01,0.02,0,0.03,0.01,0.03
	c0.01,0,0.02,0,0.03,0.01c-0.03,0.02-0.05,0.03-0.07,0.05c-0.02,0.02-0.04,0.04-0.06,0.06c-0.02,0.02-0.05,0.03-0.08,0.04
	c-0.03,0.01-0.07,0.01-0.12,0c-0.04-0.07-0.07-0.15-0.07-0.22c0-0.07,0.04-0.13,0.11-0.18c0-0.03-0.01-0.04-0.03-0.05
	c-0.02,0-0.02-0.02-0.02-0.05c0.03-0.04,0.07-0.09,0.12-0.12c0.04-0.04,0.09-0.07,0.15-0.09c0-0.05,0.01-0.09,0.03-0.12
	c0.02-0.03,0.04-0.05,0.06-0.08c0.01-0.02,0.01-0.04,0-0.04c-0.01,0-0.01-0.01-0.01-0.03c0.03-0.05,0.08-0.1,0.12-0.14
	c0.05-0.04,0.1-0.08,0.15-0.11c0.05-0.04,0.1-0.07,0.15-0.11c0.05-0.04,0.1-0.08,0.14-0.13c0.07-0.01,0.13,0,0.19,0.01
	c0.06,0.02,0.11,0.04,0.16,0.07c0.05,0.03,0.09,0.07,0.13,0.11C81.58,4.23,81.62,4.28,81.65,4.32"/>
<path class="st0" d="M85.2,5.07c0.07-0.02,0.13-0.05,0.18-0.09c0.05-0.04,0.11-0.07,0.18-0.09c0.02,0.03,0.03,0.07,0.04,0.12
	c0.01,0.04,0.01,0.08-0.01,0.11c-0.05,0.06-0.09,0.14-0.12,0.22c-0.03,0.09-0.06,0.17-0.09,0.24c-0.07-0.01-0.13,0-0.18,0.03
	c-0.05,0.03-0.1,0.07-0.14,0.1C85,5.75,84.96,5.79,84.91,5.81c-0.05,0.03-0.11,0.03-0.19,0c-0.03-0.01-0.06-0.02-0.07-0.05
	c-0.01-0.03-0.03-0.06-0.06-0.08c0-0.09,0.01-0.17,0.03-0.24c0.02-0.07,0.04-0.15,0.06-0.22c0.02-0.07,0.04-0.14,0.06-0.22
	c0.02-0.07,0.03-0.15,0.03-0.24c0.07-0.08,0.12-0.16,0.16-0.24s0.07-0.2,0.08-0.34c0.03-0.05,0.05-0.1,0.08-0.14
	c0.03-0.05,0.06-0.09,0.1-0.13c0.01-0.07,0.03-0.14,0.06-0.2c0.03-0.07,0.06-0.13,0.09-0.2c0.03-0.07,0.06-0.14,0.09-0.21
	c0.03-0.07,0.05-0.15,0.07-0.23c-0.06,0.03-0.11,0.07-0.16,0.11c-0.05,0.04-0.09,0.09-0.14,0.14c-0.04,0.05-0.09,0.09-0.14,0.14
	c-0.05,0.04-0.1,0.08-0.16,0.11c-0.02,0.03-0.03,0.07-0.05,0.09c-0.02,0.03-0.03,0.06-0.05,0.08c-0.04,0.02-0.09,0.04-0.15,0.06
	c-0.06,0.02-0.11,0.03-0.17,0.04c-0.06,0-0.11,0-0.15-0.02c-0.05-0.02-0.08-0.06-0.1-0.12c-0.03,0.02-0.05,0.04-0.07,0.07
	c-0.02,0.03-0.04,0.06-0.06,0.1c-0.02,0.04-0.03,0.07-0.03,0.11c0,0.04,0,0.07,0.02,0.1C84.07,4.1,84.03,4.15,84,4.2
	c-0.04,0.05-0.05,0.12-0.03,0.19c-0.09,0.1-0.16,0.22-0.19,0.35c-0.04,0.13-0.07,0.27-0.1,0.43c-0.03,0.01-0.05,0.02-0.07,0.03
	c-0.02,0.02-0.03,0.03-0.05,0.05c-0.01,0.02-0.03,0.03-0.04,0.04C83.5,5.3,83.48,5.3,83.46,5.3c-0.07,0.01-0.13-0.02-0.18-0.09
	c-0.05-0.07-0.07-0.14-0.07-0.22c0-0.04,0.01-0.08,0.03-0.13c0.02-0.04,0.04-0.08,0.06-0.12c0.02-0.04,0.04-0.08,0.06-0.11
	c0.02-0.04,0.04-0.07,0.05-0.1c0.01-0.02,0.01-0.03,0-0.05c-0.01-0.02-0.01-0.03,0-0.05c0.02-0.03,0.04-0.06,0.06-0.08
	c0.02-0.02,0.04-0.04,0.04-0.05c0.01-0.1,0.02-0.18,0.05-0.26c0.03-0.07,0.08-0.14,0.14-0.18c0.01-0.06,0.03-0.11,0.06-0.16
	c0.03-0.05,0.05-0.1,0.08-0.15c0.03-0.05,0.05-0.1,0.08-0.15c0.02-0.05,0.04-0.11,0.05-0.18c0.04-0.05,0.08-0.11,0.1-0.16
	c0.03-0.06,0.07-0.11,0.11-0.15c0.01-0.07,0.02-0.13,0.04-0.19c0.02-0.05,0.05-0.11,0.07-0.16c0.02-0.05,0.05-0.11,0.06-0.17
	c0.02-0.06,0.03-0.13,0.03-0.21c0.03-0.02,0.06-0.03,0.09-0.05c0.03-0.02,0.07-0.03,0.11-0.03c0.04,0,0.07,0,0.1,0.01
	c0.03,0.01,0.06,0.03,0.08,0.07c-0.01,0.04-0.01,0.08,0,0.12c0.01,0.03,0.01,0.07,0.03,0.09c0.01,0.03,0.02,0.06,0.03,0.08
	c0.01,0.03,0.02,0.06,0.02,0.09c0,0.05-0.01,0.11-0.03,0.15c-0.02,0.05-0.05,0.1-0.07,0.15C84.72,2.9,84.7,2.95,84.69,3
	c-0.02,0.05-0.01,0.11,0,0.18c0.06-0.02,0.1-0.06,0.14-0.1c0.04-0.04,0.07-0.09,0.11-0.14c0.03-0.05,0.07-0.09,0.11-0.14
	c0.04-0.04,0.09-0.07,0.15-0.09c0.03-0.03,0.06-0.06,0.09-0.1c0.03-0.04,0.04-0.08,0.05-0.14c0.11-0.02,0.18-0.08,0.2-0.19
	c0.05,0,0.1-0.02,0.14-0.06c0.04-0.03,0.08-0.07,0.12-0.11c0.04-0.04,0.07-0.07,0.11-0.1c0.04-0.03,0.08-0.04,0.13-0.04
	c0.02,0,0.04,0.01,0.05,0.02c0.01,0.01,0.02,0.03,0.04,0.04c0.01,0.01,0.02,0.03,0.04,0.04c0.01,0.01,0.04,0.02,0.07,0.02
	c0.04,0.08,0.06,0.16,0.05,0.24c0,0.08-0.02,0.15-0.03,0.23c-0.06,0.1-0.12,0.21-0.16,0.33c-0.04,0.12-0.08,0.25-0.11,0.38
	c-0.1,0.16-0.19,0.32-0.27,0.48c-0.08,0.16-0.17,0.32-0.27,0.47c-0.01,0.08-0.03,0.15-0.06,0.22c-0.03,0.07-0.06,0.14-0.09,0.2
	c-0.03,0.07-0.05,0.13-0.08,0.2C85.21,4.92,85.2,4.99,85.2,5.07"/>
<path class="st0" d="M87.54,4c0.03,0.02,0.04,0.04,0.05,0.07c0.01,0.03,0.02,0.05,0.05,0.06c-0.02,0.04-0.04,0.07-0.06,0.11
	c-0.02,0.03-0.04,0.07-0.05,0.11c-0.06,0-0.12,0.01-0.18,0.02c-0.06,0.01-0.12,0.03-0.17,0.04C87.12,4.41,87.06,4.43,87,4.43
	c-0.06,0.01-0.11,0.01-0.17,0.01c-0.08,0.03-0.17,0.09-0.25,0.16c-0.08,0.07-0.15,0.15-0.2,0.24c-0.01,0.02-0.03,0.05-0.04,0.07
	C86.33,4.95,86.32,4.98,86.32,5c0,0.03-0.01,0.06,0,0.08c0,0.03,0.01,0.05,0.03,0.07c0.04-0.01,0.07-0.03,0.11-0.04
	c0.03-0.01,0.07-0.03,0.11-0.04C86.58,5.06,86.6,5.03,86.62,5s0.04-0.06,0.06-0.08c0.06-0.01,0.12-0.03,0.16-0.06
	c0.04-0.03,0.07-0.07,0.1-0.12c0.05-0.01,0.09-0.03,0.13-0.06c0.03-0.03,0.06-0.06,0.09-0.09c0.03-0.03,0.06-0.06,0.09-0.09
	c0.03-0.03,0.08-0.05,0.13-0.05c0.05,0.02,0.1,0.04,0.14,0.08c0.04,0.04,0.09,0.07,0.13,0.1c0.01,0.04,0.02,0.06,0.01,0.08
	c0,0.02-0.02,0.04-0.04,0.06c0.01,0.02,0.01,0.04,0.02,0.07c0,0.03,0.01,0.06,0.01,0.09c0,0.03,0,0.06-0.01,0.08
	c0,0.03-0.02,0.04-0.03,0.06c0.02,0.03,0.03,0.06,0.03,0.09c0,0.03,0,0.07,0,0.1c0,0.03-0.01,0.07-0.01,0.1
	c0,0.03,0.01,0.07,0.02,0.1c-0.06,0.06-0.13,0.09-0.21,0.09c-0.08,0-0.16-0.01-0.23-0.03c-0.01-0.04-0.02-0.08-0.02-0.12
	c0-0.04,0-0.08,0-0.11c0-0.04-0.01-0.07-0.02-0.11c-0.01-0.03-0.03-0.07-0.06-0.09c-0.04,0-0.08,0.01-0.11,0.04
	c-0.04,0.02-0.07,0.04-0.11,0.07c-0.04,0.03-0.07,0.05-0.11,0.08c-0.03,0.03-0.07,0.05-0.1,0.07c-0.07,0.04-0.14,0.07-0.2,0.08
	c-0.06,0.01-0.14,0.02-0.23,0.02c-0.03,0-0.05,0-0.07,0.01c-0.02,0.01-0.04,0.01-0.06,0.01c-0.03-0.01-0.07-0.02-0.1-0.05
	c-0.03-0.03-0.06-0.06-0.08-0.1c-0.02-0.04-0.03-0.08-0.03-0.13c0-0.05,0.01-0.09,0.03-0.13c0-0.04-0.01-0.07-0.02-0.1
	c0.03-0.05,0.05-0.11,0.06-0.16c0.01-0.06,0.03-0.11,0.07-0.16c0.01-0.02,0.03-0.03,0.05-0.05c0.02-0.01,0.04-0.03,0.05-0.05
	c0.03-0.04,0.06-0.09,0.08-0.13c0.02-0.04,0.06-0.08,0.11-0.12c0.01-0.01,0.03-0.02,0.05-0.02c0.02,0,0.04-0.01,0.06-0.03
	c0.06-0.04,0.14-0.09,0.22-0.14c0.08-0.05,0.17-0.09,0.27-0.11C87.04,4,87.13,4,87.23,4C87.34,4.01,87.44,4,87.54,4"/>
<path class="st0" d="M89.27,4.32c-0.02,0.03-0.03,0.06-0.03,0.09c0,0.03-0.01,0.06-0.03,0.09c-0.04,0.03-0.09,0.04-0.15,0.02
	c-0.05-0.01-0.11-0.03-0.16-0.04c-0.06-0.02-0.11-0.02-0.15-0.02c-0.05,0-0.08,0.04-0.11,0.1c-0.05,0.01-0.09,0.03-0.13,0.05
	c-0.03,0.03-0.06,0.06-0.09,0.09c-0.03,0.03-0.06,0.06-0.09,0.09c-0.03,0.03-0.08,0.04-0.13,0.05c0,0.05-0.01,0.09-0.03,0.12
	c-0.01,0.03-0.03,0.07-0.05,0.1c-0.02,0.03-0.03,0.06-0.05,0.1s-0.03,0.07-0.03,0.11c-0.01,0.02,0,0.03,0.01,0.03
	c0.01,0,0.02,0,0.03,0.01c-0.03,0.02-0.05,0.03-0.07,0.05C88,5.39,87.98,5.41,87.96,5.43c-0.02,0.02-0.05,0.03-0.08,0.04
	c-0.03,0.01-0.07,0.01-0.12,0C87.72,5.4,87.7,5.32,87.7,5.25c0-0.07,0.04-0.13,0.11-0.18c0-0.03-0.01-0.04-0.03-0.05
	c-0.02,0-0.02-0.02-0.02-0.05c0.03-0.04,0.07-0.09,0.12-0.12c0.04-0.04,0.09-0.07,0.15-0.09c0-0.05,0.01-0.09,0.03-0.12
	c0.02-0.03,0.04-0.05,0.06-0.08c0.01-0.02,0.01-0.04,0-0.04c-0.01,0-0.01-0.01-0.01-0.03c0.03-0.05,0.08-0.1,0.12-0.14
	c0.05-0.04,0.1-0.08,0.15-0.11c0.05-0.04,0.1-0.07,0.15-0.11c0.05-0.04,0.1-0.08,0.14-0.13c0.07-0.01,0.13,0,0.19,0.01
	c0.06,0.02,0.11,0.04,0.16,0.07c0.05,0.03,0.09,0.07,0.13,0.11C89.2,4.23,89.24,4.28,89.27,4.32"/>
<path class="st0" d="M90.06,4.27c0.02,0.01,0.04,0,0.06-0.01c0.02-0.01,0.04-0.02,0.06-0.03c0.02-0.01,0.04-0.02,0.06-0.03
	c0.02-0.01,0.05,0,0.08,0.02c0.03-0.03,0.07-0.06,0.13-0.1c0.05-0.04,0.11-0.06,0.16-0.09c0.06-0.02,0.11-0.03,0.16-0.02
	c0.05,0,0.09,0.04,0.11,0.09c0.03,0.08,0.02,0.15-0.04,0.2c-0.06,0.06-0.13,0.1-0.23,0.14c-0.09,0.04-0.18,0.08-0.28,0.11
	c-0.09,0.03-0.15,0.07-0.19,0.1c0.03,0.05,0.07,0.1,0.14,0.15c0.07,0.05,0.13,0.1,0.18,0.15c0.04,0.04,0.07,0.08,0.1,0.12
	c0.03,0.04,0.07,0.08,0.1,0.13c0.02,0.03,0.04,0.05,0.07,0.06c0.03,0.02,0.05,0.04,0.08,0.06c0.02,0.02,0.04,0.05,0.05,0.08
	c0.01,0.03,0.01,0.07,0,0.12c-0.01,0.06-0.04,0.1-0.09,0.12c-0.05,0.02-0.11,0.03-0.17,0.03c-0.05-0.03-0.09-0.07-0.13-0.11
	c-0.03-0.04-0.08-0.06-0.14-0.07c-0.01-0.02-0.02-0.04-0.03-0.06c-0.01-0.02-0.01-0.05-0.02-0.07c-0.01-0.02-0.02-0.04-0.03-0.05
	c-0.01-0.02-0.03-0.02-0.06-0.02v-0.1c-0.07-0.06-0.15-0.13-0.23-0.19c-0.08-0.06-0.16-0.13-0.23-0.19
	c-0.04,0.06-0.08,0.12-0.11,0.18c-0.03,0.06-0.07,0.12-0.1,0.18c-0.04,0.06-0.08,0.11-0.13,0.16c-0.05,0.05-0.11,0.08-0.19,0.1
	c-0.04-0.02-0.07-0.05-0.08-0.09c-0.01-0.04,0-0.08,0.01-0.12c0.01-0.04,0.03-0.08,0.05-0.13c0.02-0.04,0.04-0.09,0.05-0.13
	c0.04-0.02,0.07-0.06,0.1-0.1c0.03-0.04,0.05-0.09,0.07-0.14c0.02-0.05,0.05-0.09,0.07-0.14c0.03-0.04,0.06-0.08,0.1-0.1
	c0.1-0.23,0.21-0.45,0.33-0.66c0.11-0.22,0.23-0.43,0.35-0.64c0.12-0.21,0.24-0.42,0.36-0.63c0.12-0.21,0.23-0.42,0.35-0.64
	c0-0.05,0.02-0.09,0.04-0.13c0.03-0.04,0.05-0.08,0.08-0.12c0.03-0.04,0.04-0.08,0.06-0.12c0.01-0.04,0.01-0.09-0.01-0.14
	c0.03-0.06,0.07-0.09,0.11-0.1c0.04-0.01,0.08-0.01,0.12,0.01c0.04,0.02,0.07,0.05,0.1,0.1c0.03,0.05,0.04,0.1,0.03,0.16
	c-0.01,0.05-0.03,0.11-0.07,0.15c-0.04,0.05-0.07,0.09-0.09,0.14c-0.02,0.03-0.03,0.06-0.04,0.1c-0.01,0.03-0.02,0.06-0.04,0.09
	c-0.02,0.03-0.03,0.06-0.05,0.08c-0.02,0.02-0.04,0.04-0.05,0.07c-0.02,0.04-0.04,0.09-0.04,0.14c-0.01,0.05-0.03,0.09-0.05,0.13
	c-0.08,0.15-0.17,0.3-0.26,0.46C90.7,3.1,90.61,3.25,90.53,3.4c-0.09,0.15-0.17,0.3-0.25,0.44C90.19,3.99,90.12,4.13,90.06,4.27"/>
<path class="st0" d="M91.13,5.55c-0.03-0.05-0.06-0.11-0.08-0.19c-0.02-0.08-0.02-0.15,0-0.23c0.04-0.02,0.08-0.03,0.12-0.04
	c0.04-0.01,0.08-0.02,0.12-0.02c0.07,0.02,0.11,0.06,0.13,0.13c0.02,0.06,0.03,0.13,0.01,0.19c-0.02,0.06-0.05,0.11-0.1,0.15
	C91.28,5.58,91.21,5.58,91.13,5.55 M92.34,1.87c0,0.03,0.01,0.05,0.03,0.05c-0.01,0.1-0.02,0.2-0.04,0.29
	c-0.02,0.09-0.05,0.18-0.07,0.26c-0.03,0.09-0.05,0.17-0.08,0.26c-0.03,0.09-0.05,0.18-0.06,0.28c-0.1,0.25-0.2,0.49-0.28,0.73
	c-0.09,0.24-0.18,0.49-0.27,0.75c-0.02,0.02-0.04,0.03-0.05,0.06c-0.01,0.02-0.03,0.04-0.04,0.06c-0.02,0.02-0.04,0.04-0.06,0.05
	c-0.03,0.01-0.06,0.02-0.1,0.01c-0.01-0.03-0.03-0.05-0.06-0.06c0.01-0.07,0.03-0.14,0.05-0.2c0.02-0.06,0.05-0.13,0.07-0.19
	c0.03-0.06,0.05-0.13,0.07-0.2c0.02-0.07,0.03-0.15,0.04-0.23c0.08-0.18,0.16-0.36,0.24-0.55c0.08-0.19,0.13-0.37,0.16-0.56
	c0.06-0.11,0.12-0.23,0.16-0.35c0.05-0.12,0.08-0.25,0.12-0.39c0.01-0.01,0.03-0.02,0.04-0.03s0.03-0.02,0.04-0.03
	c0.02-0.01,0.03-0.01,0.05-0.02C92.29,1.85,92.31,1.85,92.34,1.87"/>
<path class="st0" d="M94.92,8.22c0,0.54-0.43,0.97-0.97,0.98c-0.55,0-0.98-0.44-0.98-0.98c0-0.53,0.43-0.97,0.96-0.97
	C94.48,7.23,94.92,7.68,94.92,8.22 M93.94,7.36c-0.47,0-0.86,0.38-0.85,0.86c0,0.47,0.39,0.85,0.86,0.85c0.47,0,0.85-0.39,0.85-0.86
	C94.8,7.74,94.42,7.36,93.94,7.36"/>
<path class="st0" d="M93.78,8.73H93.6V7.7c0,0,0.01,0,0.01,0c0.12,0,0.24,0,0.37,0c0.07,0,0.14,0.01,0.2,0.04
	c0.08,0.04,0.13,0.11,0.15,0.2c0.01,0.06,0.01,0.11-0.01,0.17c-0.02,0.08-0.07,0.13-0.14,0.17c-0.01,0.01-0.02,0.01-0.04,0.02
	c0.02,0.04,0.04,0.07,0.06,0.11c0.06,0.1,0.11,0.21,0.17,0.31c0,0,0,0.01,0,0.02h-0.01c-0.06,0-0.12,0-0.17,0
	c-0.01,0-0.01,0-0.01-0.01c-0.07-0.13-0.13-0.25-0.2-0.38c0-0.01-0.01-0.01-0.02-0.01c-0.06,0-0.12,0-0.18,0c0,0-0.01,0-0.01,0V8.73
	z M93.78,8.19h0.01c0.06,0,0.11,0,0.17,0c0.02,0,0.04,0,0.06-0.01c0.06-0.01,0.1-0.04,0.12-0.1c0.01-0.04,0.01-0.08,0-0.12
	c-0.01-0.05-0.04-0.08-0.09-0.1C94.03,7.85,94,7.85,93.96,7.85c-0.06,0-0.12,0-0.18,0h-0.01V8.19z"/>
</svg>
