<?xml version="1.0" encoding="utf-8"?>
<!-- Generator: Adobe Illustrator 25.2.1, SVG Export Plug-In . SVG Version: 6.00 Build 0)  -->
<svg version="1.1" id="Layer_1" xmlns="http://www.w3.org/2000/svg" xmlns:xlink="http://www.w3.org/1999/xlink" x="0px" y="0px"
	 viewBox="0 0 284 153" style="enable-background:new 0 0 284 153;" xml:space="preserve">
<style type="text/css">
	.st0{fill:none;stroke:#EC1C24;stroke-width:3;stroke-linecap:round;}
</style>
<path class="st0" d="M282.2,2.2c0,0,0.2,53.2-26.1,77.8c-26.3,24.7-103.1,37-125.7-1.9c-6-10.3-8.7-25.8-0.6-33.1
	c9.1-8.3,24.6-2.3,31,8.2c9,14.7,5.5,40.2-15.4,68.1c-41.7,55.7-143.1,9.9-143.1,9.9 M2.3,131.1c0,0,7,4.8,10.4,8.8
	c2.8,3.2,1.7,10.7,1.7,10.7 M2.3,131.1c4-0.1,8.7,1.6,13.6-0.5c3.4-1.5,4.2-2.7,7.4-6"/>
</svg>
