<?xml version="1.0" encoding="utf-8"?>
<!-- Generator: Adobe Illustrator 25.2.1, SVG Export Plug-In . SVG Version: 6.00 Build 0)  -->
<svg version="1.1" id="Layer_1" xmlns="http://www.w3.org/2000/svg" xmlns:xlink="http://www.w3.org/1999/xlink" x="0px" y="0px"
	 viewBox="0 0 74 70" style="enable-background:new 0 0 74 70;" xml:space="preserve">
<style type="text/css">
	.st0{fill:#EC1C24;}
</style>
<path class="st0" d="M12.2,63l15.1-19.1c0.8-0.8,1.3-1.9,1.3-3c0-0.4-0.1-0.7-0.2-1c-0.2-0.3-0.4-0.6-0.7-0.8
	c-0.7-0.5-1.5-0.7-2.4-0.7c-0.4,0-0.8,0-1.1,0.1L0,41.8V28.2l24.3,3.3c0.4,0.1,0.7,0.1,1.1,0.1c0.9,0,1.7-0.2,2.4-0.7
	c0.3-0.2,0.5-0.5,0.7-0.8s0.2-0.7,0.2-1c-0.1-1.1-0.5-2.1-1.3-2.9L12.2,6.8L24.5,0l9.1,22.7c0.3,0.8,0.8,1.6,1.4,2.2
	c0.2,0.2,0.5,0.4,0.8,0.6c0.3,0.1,0.6,0.2,1,0.2s0.7-0.1,1-0.2s0.6-0.3,0.8-0.6c0.6-0.6,1.1-1.4,1.4-2.2L49.1,0l12.5,6.8L46.2,26.2
	c-0.8,0.8-1.3,1.9-1.3,3c0,0.3,0.1,0.7,0.2,1c0.2,0.3,0.4,0.6,0.7,0.8c0.7,0.5,1.6,0.7,2.5,0.7c0.4,0,0.8,0,1.2-0.1l24.2-3.3v13.6
	l-24.2-3.3c-0.4-0.1-0.9-0.1-1.3-0.1c-0.8-0.1-1.7,0.2-2.4,0.6c-0.3,0.2-0.5,0.5-0.6,0.8c-0.2,0.3-0.2,0.6-0.2,1
	c0.1,1.2,0.6,2.3,1.4,3.1l15.1,19L49,70l-9.1-22.7c-0.3-0.8-0.8-1.6-1.4-2.2c-0.2-0.2-0.5-0.4-0.8-0.6c-0.3-0.1-0.6-0.2-1-0.2
	c-0.3,0-0.7,0.1-1,0.2c-0.3,0.1-0.6,0.3-0.8,0.6c-0.6,0.6-1.1,1.4-1.4,2.2L24.4,70L12.2,63z"/>
</svg>
