<?xml version="1.0" encoding="utf-8"?>
<!-- Generator: Adobe Illustrator 28.1.0, SVG Export Plug-In . SVG Version: 6.00 Build 0)  -->
<svg version="1.1" id="Layer_1" xmlns="http://www.w3.org/2000/svg" xmlns:xlink="http://www.w3.org/1999/xlink" x="0px" y="0px"
	 viewBox="0 0 678 139" style="enable-background:new 0 0 678 139;" xml:space="preserve">
<style type="text/css">
	.st0{fill:none;stroke:#ED1C24;stroke-width:5;stroke-linecap:round;stroke-linejoin:round;stroke-miterlimit:1.5;}
</style>
<path class="st0" d="M522.1,21.3C414.9-5.5,208.7-0.9,102.9,22.5C54.7,33.1-34.2,64,19.9,93.2c9.5,5.1,21.1,9.3,33.1,12.9
	c132,39.8,316.2,35.7,457.9,11.9c21.1-3.6,41.9-7.8,61.1-13.5c14.3-4.3,28.1-9.6,39.3-15.8c32.6-18.1,24.1-36.4-11-51.8
	c-40.7-17.8-96.3-23.4-148.8-26.4c-45.9-2.6-91.8-3.2-137.9-2.1c-86.5,2-186.2,5.2-258.8,29.6C23.1,48.8-11,71.5,16.2,89.9
	c29.4,20,98.8,26.4,145.5,30.6c125.9,11.4,325.2,5.7,439.9-24.1c12.4-3.2,24.9-6.2,36-10.4c8.7-3.3,17.1-7.2,24.4-11.3
	c51.5-29.2-63.4-47.6-103.9-50.7c-127.4-9.9-316-24.2-433.3,2.2"/>
</svg>
